# xmcd
#
# Track frame offsets: 
#        150
#        14018
#        29607
#        46944
#        60058
#        74520
#        90383
#        110653
#        124922
#        139110
#        154168
#        168154
#
# Disc length: 2454 seconds
#
# Revision: 0
# Processed by: cddbd v1.5.1PL2 Copyright (c) Steve Scherf et al.
# Submitted via: ExactAudioCopy v0.95b3
#
DISCID=9e09940c
DTITLE=Svensson&Dafgård - Rootation
DYEAR=2006
DGENRE=Blues
TTITLE0=Voodoo Chile
TTITLE1=Heaven only knows
TTITLE2=Stay away from love
TTITLE3=Men of steel
TTITLE4=At my front door
TTITLE5=Bad luck blues
TTITLE6=My love is
TTITLE7=Change my ways
TTITLE8=Albert and Agnes
TTITLE9=It ain't right
TTITLE10=M&O
TTITLE11=Pilgrim
EXTD=
EXTT0=
EXTT1=
EXTT2=
EXTT3=
EXTT4=
EXTT5=
EXTT6=
EXTT7=
EXTT8=
EXTT9=
EXTT10=
EXTT11=
PLAYORDER=
